<?xml version="1.0" encoding="UTF-8" standalone="no"?>
<svg width="32" height="32" viewBox="0 0 32 32" fill="none" xmlns="http://www.w3.org/2000/svg">
  <!-- Shield background -->
  <path d="M16 2L4 7V15C4 22.1797 9.1203 28.9037 16 31C22.8797 28.9037 28 22.1797 28 15V7L16 2Z" fill="#2563EB"/>

  <!-- Inner shield detail -->
  <path d="M16 4L6 8.2V15C6 21.0797 10.3203 26.8037 16 28.6C21.6797 26.8037 26 21.0797 26 15V8.2L16 4Z" fill="#FFFFFF"/>

  <!-- Lock symbol -->
  <path d="M16 12C17.1046 12 18 11.1046 18 10C18 8.89543 17.1046 8 16 8C14.8954 8 14 8.89543 14 10C14 11.1046 14.8954 12 16 12Z" fill="#2563EB"/>
  <path d="M19 14H13C12.4477 14 12 14.4477 12 15V19C12 19.5523 12.4477 20 13 20H19C19.5523 20 20 19.5523 20 19V15C20 14.4477 19.5523 14 19 14Z" fill="#2563EB"/>
</svg>
